# xmcd
#
# Track frame offsets: 
#        150
#        12722
#        28530
#        43575
#        64472
#        80800
#        93712
#        105652
#        121477
#        139852
#        155575
#        168712
#        185287
#        199912
#        211500
#        227400
#        244837
#        260962
#
# Disc length: 3664 seconds
#
# Revision: 3
# Processed by: cddbd v1.5.2PL0 Copyright (c) Steve Scherf et al.
# Submitted via: ExactAudioCopyFreeDBPlugin 1.0
#
DISCID=0a0e4e12
DTITLE=John Williamson - All The Best
DYEAR=1986
DGENRE=Country
TTITLE0=You And My Guitar
TTITLE1=Goodbye Blinky Bill
TTITLE2=Just A Dog
TTITLE3=Wrinkles
TTITLE4=Diggers Of The Anzac
TTITLE5=Old Man Emu
TTITLE6=The Shed
TTITLE7=Hawkesbury River Lovin'
TTITLE8=The Breaker
TTITLE9=I'm Fair Dinkum (Live)
TTITLE10=The Bush Barber (Live)
TTITLE11=Dad's Flowers (Live)
TTITLE12=Billabong (Live)
TTITLE13=Chain Around My Ankle (Live)
TTITLE14=I Can't Feel Those Chains Any Longer (Live)
TTITLE15=The Vasectomy Song (Live)
TTITLE16=Stuffed If I Know (Live)
TTITLE17=Home Among The Gum Trees (Live)
EXTD=YEAR: 1986 ID3G:  80
EXTT0=
EXTT1=
EXTT2=
EXTT3=
EXTT4=
EXTT5=
EXTT6=
EXTT7=
EXTT8=
EXTT9=
EXTT10=
EXTT11=
EXTT12=
EXTT13=
EXTT14=
EXTT15=
EXTT16=
EXTT17=
PLAYORDER=
